<svg width="1920" height="1080" xmlns="http://www.w3.org/2000/svg">
  <!-- Carrés et rectangles aléatoires avec tailles, rotations, et épaisseurs de bordures variées -->
  <rect x="100" y="50" width="300" height="100" stroke="gray" stroke-width="6" fill="none" transform="rotate(15 250 100)"/>
  <rect x="500" y="200" width="150" height="300" stroke="gray" stroke-width="4" fill="none" transform="rotate(-20 575 350)"/>
  <rect x="800" y="150" width="400" height="200" stroke="gray" stroke-width="2" fill="none" transform="rotate(30 1000 250)"/>
  <rect x="1200" y="100" width="300" height="150" stroke="gray" stroke-width="7" fill="none" transform="rotate(-10 1350 175)"/>
  <rect x="1600" y="50" width="250" height="200" stroke="gray" stroke-width="5" fill="none" transform="rotate(5 1725 150)"/>
  <rect x="200" y="400" width="350" height="120" stroke="gray" stroke-width="3" fill="none" transform="rotate(-5 375 460)"/>
  <rect x="700" y="500" width="200" height="300" stroke="gray" stroke-width="4" fill="none" transform="rotate(20 800 650)"/>
  <rect x="1200" y="500" width="250" height="100" stroke="gray" stroke-width="6" fill="none" transform="rotate(-15 1325 550)"/>
  <rect x="1600" y="400" width="300" height="200" stroke="gray" stroke-width="2" fill="none" transform="rotate(10 1750 500)"/>
  <rect x="900" y="700" width="350" height="150" stroke="gray" stroke-width="5" fill="none" transform="rotate(-25 1075 775)"/>
  <rect x="400" y="600" width="300" height="200" stroke="gray" stroke-width="3" fill="none" transform="rotate(15 550 700)"/>
  <rect x="1500" y="750" width="200" height="150" stroke="gray" stroke-width="7" fill="none" transform="rotate(-5 1600 825)"/>
  <rect x="1100" y="850" width="400" height="100" stroke="gray" stroke-width="2" fill="none" transform="rotate(30 1300 900)"/>
  <rect x="50" y="700" width="250" height="250" stroke="gray" stroke-width="6" fill="none" transform="rotate(-20 175 825)"/>
  <rect x="1300" y="200" width="150" height="300" stroke="gray" stroke-width="4" fill="none" transform="rotate(10 1375 350)"/>
  <rect x="1700" y="600" width="250" height="120" stroke="gray" stroke-width="5" fill="none" transform="rotate(-15 1825 660)"/>
  <rect x="200" y="900" width="350" height="100" stroke="gray" stroke-width="3" fill="none" transform="rotate(20 375 950)"/>
  <rect x="600" y="800" width="200" height="300" stroke="gray" stroke-width="7" fill="none" transform="rotate(-10 700 950)"/>
  <rect x="300" y="200" width="300" height="150" stroke="gray" stroke-width="4" fill="none" transform="rotate(25 450 275)"/>
  <rect x="1400" y="850" width="250" height="200" stroke="gray" stroke-width="2" fill="none" transform="rotate(-5 1525 950)"/>
  <rect x="1800" y="150" width="100" height="400" stroke="gray" stroke-width="6" fill="none" transform="rotate(15 1850 350)"/>
  <rect x="50" y="50" width="250" height="120" stroke="gray" stroke-width="5" fill="none" transform="rotate(-10 175 110)"/>
  <rect x="500" y="300" width="150" height="200" stroke="gray" stroke-width="3" fill="none" transform="rotate(20 575 400)"/>
  <rect x="800" y="100" width="200" height="250" stroke="gray" stroke-width="4" fill="none" transform="rotate(-25 900 225)"/>
</svg>
